<?xml version="1.0" encoding="UTF-8"?>
<svg xmlns="http://www.w3.org/2000/svg" xmlns:xlink="http://www.w3.org/1999/xlink"     
    width="24px" height="24px" viewBox="0 0 24 24" version="1.1"
    style="enable-background:new 0 0 24 24;" xml:space="preserve"
><g id="surface1">
<path style=" stroke:none;fill-rule:nonzero;fill-opacity:1;" d="M 11.289062 2.425781 C 9.441406 2.5625 7.640625 3.246094 6.175781 4.371094 C 4.265625 5.832031 2.96875 7.960938 2.550781 10.300781 C 2.441406 10.925781 2.417969 11.210938 2.414062 11.960938 C 2.414062 12.722656 2.433594 12.984375 2.539062 13.617188 C 3.070312 16.78125 5.214844 19.519531 8.175781 20.808594 C 10.90625 21.996094 14.085938 21.832031 16.6875 20.378906 C 18.375 19.429688 19.765625 17.964844 20.613281 16.238281 C 21.117188 15.207031 21.417969 14.164062 21.550781 12.976562 C 21.601562 12.542969 21.59375 11.378906 21.539062 10.925781 C 21.378906 9.59375 21.003906 8.433594 20.375 7.3125 C 19.449219 5.65625 18.011719 4.28125 16.324219 3.433594 C 15.265625 2.90625 14.261719 2.601562 13.085938 2.460938 C 12.707031 2.414062 11.683594 2.394531 11.289062 2.425781 Z M 12.261719 4.789062 C 12.394531 5.199219 12.570312 5.738281 12.648438 5.988281 C 13.066406 7.265625 13.425781 8.375 13.597656 8.914062 L 13.792969 9.511719 L 16.703125 9.523438 L 19.613281 9.539062 L 19.4375 9.667969 C 19.285156 9.78125 18.175781 10.585938 15.632812 12.441406 C 15.242188 12.722656 14.925781 12.964844 14.925781 12.980469 C 14.925781 13.003906 15.230469 13.949219 15.648438 15.238281 C 16.230469 17.007812 16.703125 18.484375 16.691406 18.488281 C 16.6875 18.496094 16.632812 18.460938 16.574219 18.417969 C 16.449219 18.324219 13.3125 16.039062 12.539062 15.480469 C 12.265625 15.28125 12.027344 15.113281 12.011719 15.109375 C 11.996094 15.101562 10.929688 15.863281 9.648438 16.796875 C 8.363281 17.730469 7.308594 18.488281 7.304688 18.488281 C 7.292969 18.476562 7.320312 18.386719 7.648438 17.378906 C 7.929688 16.507812 8.167969 15.773438 8.8125 13.789062 C 8.960938 13.335938 9.070312 12.960938 9.058594 12.949219 C 9.035156 12.925781 5.378906 10.265625 4.769531 9.828125 C 4.566406 9.683594 4.402344 9.554688 4.402344 9.542969 C 4.398438 9.53125 5.703125 9.523438 7.296875 9.523438 L 10.199219 9.523438 L 10.398438 8.890625 C 10.511719 8.546875 10.742188 7.835938 10.914062 7.3125 C 11.65625 5.019531 11.828125 4.496094 11.902344 4.253906 C 11.949219 4.113281 11.992188 4.007812 12.003906 4.015625 C 12.011719 4.03125 12.128906 4.375 12.261719 4.789062 Z M 12.261719 4.789062 "/>
</g>
</svg>
