<?xml version="1.0" encoding="UTF-8"?>
<svg xmlns="http://www.w3.org/2000/svg" xmlns:xlink="http://www.w3.org/1999/xlink" 
    width="24px" height="24px" viewBox="0 0 24 24" version="1.1"
    style="enable-background:new 0 0 24 24;" xml:space="preserve"
>
<g id="surface1">
<path style=" stroke:none;fill-rule:nonzero;fill-opacity:1;" d="M 11.445312 2.414062 C 9.730469 2.539062 8.285156 3.003906 6.878906 3.882812 C 5.707031 4.617188 4.648438 5.671875 3.898438 6.855469 C 2.671875 8.789062 2.171875 11.121094 2.5 13.375 C 2.808594 15.476562 3.773438 17.367188 5.304688 18.867188 C 6.359375 19.902344 7.503906 20.601562 8.957031 21.101562 C 10.882812 21.761719 13.117188 21.761719 15.042969 21.101562 C 16.496094 20.601562 17.640625 19.898438 18.695312 18.867188 C 19.800781 17.785156 20.578125 16.558594 21.074219 15.113281 C 22.023438 12.355469 21.667969 9.320312 20.101562 6.855469 C 19.496094 5.902344 18.660156 4.996094 17.753906 4.320312 C 16.074219 3.0625 14.019531 2.382812 11.945312 2.40625 C 11.722656 2.40625 11.5 2.410156 11.445312 2.414062 Z M 9.007812 8.140625 C 10.039062 8.285156 10.769531 8.609375 11.347656 9.1875 C 12.085938 9.925781 12.429688 10.929688 12.429688 12.367188 C 12.429688 13.523438 12.21875 14.359375 11.738281 15.078125 C 11.546875 15.363281 11.152344 15.761719 10.878906 15.941406 C 10.492188 16.199219 9.992188 16.40625 9.511719 16.507812 C 8.957031 16.625 8.917969 16.628906 6.941406 16.636719 L 5.089844 16.648438 L 5.089844 8.085938 L 6.917969 8.09375 C 8.460938 8.105469 8.785156 8.109375 9.007812 8.140625 Z M 19.644531 8.800781 L 19.644531 9.511719 L 15.910156 9.511719 L 15.910156 11.777344 L 19.289062 11.777344 L 19.289062 13.179688 L 15.910156 13.179688 L 15.910156 16.644531 L 14.222656 16.644531 L 14.222656 8.089844 L 19.644531 8.089844 Z M 19.644531 8.800781 "/>
<path style=" stroke:none;fill-rule:nonzero;fill-opacity:1;" d="M 6.777344 12.367188 L 6.777344 15.222656 L 7.539062 15.222656 C 8.539062 15.222656 8.894531 15.179688 9.328125 15.007812 C 9.800781 14.816406 10.125 14.527344 10.351562 14.089844 C 10.480469 13.835938 10.558594 13.601562 10.625 13.25 C 10.667969 13.023438 10.675781 12.914062 10.679688 12.390625 C 10.679688 11.742188 10.664062 11.605469 10.554688 11.183594 C 10.386719 10.527344 10.042969 10.078125 9.5 9.804688 C 9.039062 9.574219 8.605469 9.511719 7.449219 9.511719 L 6.777344 9.511719 Z M 6.777344 12.367188 "/>
</g>
</svg>
