<?xml version="1.0" encoding="UTF-8"?>
<svg xmlns="http://www.w3.org/2000/svg" xmlns:xlink="http://www.w3.org/1999/xlink" 
    width="24px" height="24px" viewBox="0 0 24 24" version="1.1"
    style="enable-background:new 0 0 24 24;" xml:space="preserve"
>
<g id="surface1">
<path style=" stroke:none;fill-rule:nonzero;fill-opacity:1;" d="M 11.445312 2.414062 C 9.730469 2.539062 8.285156 3.003906 6.878906 3.882812 C 5.707031 4.617188 4.648438 5.671875 3.898438 6.855469 C 2.671875 8.789062 2.171875 11.121094 2.5 13.375 C 2.808594 15.476562 3.773438 17.367188 5.304688 18.867188 C 6.359375 19.902344 7.503906 20.601562 8.957031 21.101562 C 10.882812 21.761719 13.117188 21.761719 15.042969 21.101562 C 16.496094 20.601562 17.640625 19.898438 18.695312 18.867188 C 19.800781 17.785156 20.578125 16.558594 21.074219 15.113281 C 22.023438 12.355469 21.667969 9.320312 20.101562 6.855469 C 19.496094 5.902344 18.660156 4.996094 17.753906 4.320312 C 16.074219 3.0625 14.019531 2.382812 11.945312 2.40625 C 11.722656 2.40625 11.5 2.410156 11.445312 2.414062 Z M 9.71875 8.054688 C 10.253906 8.148438 10.75 8.335938 11.140625 8.59375 C 11.332031 8.71875 11.667969 9.050781 11.792969 9.234375 C 11.894531 9.382812 12.066406 9.71875 12.066406 9.765625 C 12.066406 9.8125 10.863281 10.535156 10.785156 10.535156 C 10.722656 10.535156 10.707031 10.515625 10.617188 10.359375 C 10.320312 9.859375 9.921875 9.582031 9.332031 9.480469 C 9.03125 9.425781 8.804688 9.417969 8.523438 9.445312 C 8.066406 9.488281 7.730469 9.601562 7.4375 9.808594 C 6.976562 10.136719 6.714844 10.625 6.574219 11.398438 C 6.484375 11.898438 6.492188 12.898438 6.589844 13.460938 C 6.71875 14.214844 7.046875 14.761719 7.535156 15.042969 C 7.855469 15.234375 8.085938 15.289062 8.578125 15.304688 C 9.3125 15.328125 9.75 15.191406 10.074219 14.84375 C 10.339844 14.558594 10.441406 14.253906 10.460938 13.671875 L 10.472656 13.3125 L 8.445312 13.3125 L 8.445312 11.933594 L 12.132812 11.933594 L 12.132812 16.644531 L 10.535156 16.644531 L 10.535156 15.488281 L 10.464844 15.488281 C 10.410156 15.488281 10.394531 15.503906 10.332031 15.625 C 10.101562 16.085938 9.671875 16.460938 9.195312 16.617188 C 8.839844 16.734375 8.609375 16.761719 8.109375 16.75 C 7.632812 16.734375 7.382812 16.695312 7.027344 16.574219 C 6.246094 16.316406 5.648438 15.769531 5.257812 14.957031 C 4.601562 13.589844 4.589844 11.277344 5.238281 9.992188 C 5.773438 8.925781 6.617188 8.296875 7.832031 8.058594 C 8.15625 7.992188 8.339844 7.980469 8.867188 7.988281 C 9.308594 7.992188 9.441406 8.003906 9.71875 8.054688 Z M 19.535156 8.800781 L 19.535156 9.511719 L 15.800781 9.511719 L 15.800781 11.777344 L 19.179688 11.777344 L 19.179688 13.179688 L 15.800781 13.179688 L 15.800781 16.644531 L 14.109375 16.644531 L 14.109375 8.089844 L 19.535156 8.089844 Z M 19.535156 8.800781 "/>
</g>
</svg>
