<?xml version="1.0" encoding="UTF-8"?>
<svg xmlns="http://www.w3.org/2000/svg" xmlns:xlink="http://www.w3.org/1999/xlink" 
    width="24px" height="24px" viewBox="0 0 24 24" version="1.1"
    style="enable-background:new 0 0 24 24;" xml:space="preserve"
>
<g id="surface1">
<path style=" stroke:none;fill-rule:nonzero;fill-opacity:1;" d="M 11.445312 2.414062 C 9.730469 2.539062 8.285156 3.003906 6.878906 3.882812 C 5.707031 4.617188 4.648438 5.671875 3.898438 6.855469 C 2.671875 8.789062 2.171875 11.121094 2.5 13.375 C 2.808594 15.476562 3.773438 17.367188 5.304688 18.867188 C 6.359375 19.902344 7.503906 20.601562 8.957031 21.101562 C 10.882812 21.761719 13.117188 21.761719 15.042969 21.101562 C 16.496094 20.601562 17.640625 19.898438 18.695312 18.867188 C 19.800781 17.785156 20.578125 16.558594 21.074219 15.113281 C 22.023438 12.355469 21.667969 9.320312 20.101562 6.855469 C 19.496094 5.902344 18.660156 4.996094 17.753906 4.320312 C 16.074219 3.0625 14.019531 2.382812 11.945312 2.40625 C 11.722656 2.40625 11.5 2.410156 11.445312 2.414062 Z M 8.609375 10.835938 C 9.550781 12.347656 10.328125 13.585938 10.335938 13.589844 C 10.34375 13.59375 10.382812 13.59375 10.421875 13.585938 L 10.488281 13.570312 L 10.488281 8.089844 L 12.109375 8.089844 L 12.109375 16.644531 L 11.242188 16.640625 L 10.375 16.632812 L 8.5625 13.699219 C 7.570312 12.085938 6.746094 10.765625 6.734375 10.769531 C 6.71875 10.769531 6.6875 10.773438 6.65625 10.773438 L 6.601562 10.777344 L 6.601562 16.644531 L 4.976562 16.644531 L 4.976562 8.089844 L 6.898438 8.089844 Z M 19.753906 8.800781 L 19.753906 9.511719 L 16.042969 9.511719 L 16.042969 11.777344 L 19.421875 11.777344 L 19.421875 13.179688 L 16.042969 13.179688 L 16.042969 16.644531 L 14.332031 16.644531 L 14.332031 12.382812 C 14.332031 10.039062 14.339844 8.109375 14.347656 8.105469 C 14.355469 8.09375 15.574219 8.089844 17.058594 8.089844 L 19.753906 8.089844 Z M 19.753906 8.800781 "/>
</g>
</svg>
