<?xml version="1.0" encoding="UTF-8"?>
<svg xmlns="http://www.w3.org/2000/svg" xmlns:xlink="http://www.w3.org/1999/xlink" 
    width="24px" height="24px" viewBox="0 0 24 24" version="1.1"
    style="enable-background:new 0 0 24 24;" xml:space="preserve"
>
<g id="surface1">
<path style=" stroke:none;fill-rule:nonzero;fill-opacity:1;" d="M 11.445312 2.414062 C 9.730469 2.539062 8.285156 3.003906 6.878906 3.882812 C 5.707031 4.617188 4.648438 5.671875 3.898438 6.855469 C 2.671875 8.789062 2.171875 11.121094 2.5 13.375 C 2.808594 15.476562 3.773438 17.367188 5.304688 18.867188 C 6.359375 19.902344 7.503906 20.601562 8.957031 21.101562 C 10.882812 21.761719 13.117188 21.761719 15.042969 21.101562 C 16.496094 20.601562 17.640625 19.898438 18.695312 18.867188 C 19.800781 17.785156 20.578125 16.558594 21.074219 15.113281 C 22.023438 12.355469 21.667969 9.320312 20.101562 6.855469 C 19.496094 5.902344 18.660156 4.996094 17.753906 4.320312 C 16.074219 3.0625 14.019531 2.382812 11.945312 2.40625 C 11.722656 2.40625 11.5 2.410156 11.445312 2.414062 Z M 10.101562 8.738281 C 10.214844 9.09375 10.683594 10.53125 11.136719 11.925781 L 11.964844 14.464844 L 12.109375 14.464844 L 12.296875 13.882812 C 12.402344 13.5625 12.835938 12.203125 13.265625 10.867188 C 13.695312 9.527344 14.070312 8.355469 14.101562 8.261719 L 14.160156 8.089844 L 15.023438 8.089844 C 15.703125 8.089844 15.890625 8.09375 15.890625 8.117188 C 15.890625 8.132812 15.246094 10.054688 14.457031 12.390625 L 13.027344 16.632812 L 12.003906 16.640625 L 10.980469 16.644531 L 10.847656 16.25 C 10.777344 16.035156 10.132812 14.121094 9.414062 12 C 8.699219 9.878906 8.109375 8.132812 8.109375 8.117188 C 8.109375 8.09375 8.316406 8.089844 9 8.089844 L 9.886719 8.089844 Z M 10.101562 8.738281 "/>
</g>
</svg>
