<?xml version="1.0" encoding="UTF-8"?>
<svg xmlns="http://www.w3.org/2000/svg" xmlns:xlink="http://www.w3.org/1999/xlink"
    width="24px" height="24px" viewBox="0 0 24 24" version="1.1"
    style="enable-background:new 0 0 24 24;" xml:space="preserve"
>
<g id="surface1">
<path style=" stroke:none;fill-rule:nonzero;fill-opacity:1;" d="M 11.425781 2.414062 C 9.328125 2.554688 7.414062 3.320312 5.824219 4.652344 C 5.472656 4.949219 4.808594 5.625 4.535156 5.960938 C 3.085938 7.773438 2.339844 9.980469 2.40625 12.261719 C 2.453125 13.695312 2.769531 14.984375 3.386719 16.238281 C 5.085938 19.683594 8.679688 21.796875 12.484375 21.578125 C 14.277344 21.480469 15.863281 20.957031 17.304688 19.996094 C 19.820312 18.320312 21.371094 15.640625 21.578125 12.617188 C 21.746094 10.175781 20.945312 7.738281 19.359375 5.835938 C 17.78125 3.953125 15.566406 2.761719 13.085938 2.460938 C 12.78125 2.425781 11.722656 2.394531 11.425781 2.414062 Z M 6.574219 9.179688 C 6.769531 9.773438 7.085938 10.738281 7.273438 11.324219 C 7.464844 11.910156 7.773438 12.859375 7.960938 13.429688 L 8.300781 14.476562 L 8.449219 14.476562 L 8.636719 13.882812 C 8.742188 13.554688 8.882812 13.117188 8.949219 12.914062 C 9.046875 12.617188 10.167969 9.121094 10.433594 8.289062 L 10.492188 8.113281 L 11.359375 8.105469 C 12.03125 8.101562 12.226562 8.105469 12.226562 8.128906 C 12.226562 8.148438 12.011719 8.792969 11.75 9.5625 C 11.488281 10.332031 11.023438 11.714844 10.710938 12.636719 C 10.398438 13.558594 9.96875 14.835938 9.753906 15.476562 L 9.363281 16.636719 L 7.316406 16.636719 L 6.859375 15.289062 C 6.609375 14.546875 6.15625 13.199219 5.851562 12.300781 C 5.546875 11.398438 5.164062 10.265625 5 9.789062 C 4.835938 9.304688 4.648438 8.746094 4.578125 8.539062 C 4.507812 8.335938 4.449219 8.152344 4.449219 8.132812 C 4.449219 8.105469 4.617188 8.101562 5.335938 8.101562 L 6.222656 8.101562 Z M 19.175781 8.8125 L 19.175781 9.523438 L 15.199219 9.523438 L 15.199219 11.523438 L 18.675781 11.523438 L 18.675781 12.898438 L 15.199219 12.898438 L 15.199219 15.226562 L 17.234375 15.230469 L 19.261719 15.238281 L 19.269531 15.941406 L 19.273438 16.648438 L 13.5 16.648438 L 13.5 12.390625 C 13.5 10.050781 13.507812 8.125 13.515625 8.117188 C 13.523438 8.109375 14.800781 8.101562 16.355469 8.101562 L 19.175781 8.101562 Z M 19.175781 8.8125 "/>
</g>
</svg>
